<?xml version="1.0" encoding="iso-8859-1"?>
<!-- Generator: Adobe Illustrator 18.1.1, SVG Export Plug-In . SVG Version: 6.00 Build 0)  -->
<svg version="1.1" id="Capa_1" xmlns="http://www.w3.org/2000/svg" xmlns:xlink="http://www.w3.org/1999/xlink" x="0px" y="0px"
   viewBox="0 0 791.909 791.909" style="enable-background:new 0 0 791.909 791.909;" xml:space="preserve">
<g fill="#cccccc">
  <path d="M699.103,377.256c0-56.323-77.993-100.76-176.742-100.76c-27.613,0-52.3,2.926-75.067,9.875v-76.987
    c0-1.006,0-2.012,0-2.926c0-1.006,0-2.012,0-2.926V100.76C447.294,44.437,369.301,0,270.553,0
    C170.798,0,92.805,44.437,92.805,100.76v100.76c0,1.006,0,2.012,0,2.926c0,1.006,0,2.012,0,2.926v100.76c0,1.006,0,2.012,0,2.926
    s0,2.012,0,2.926v100.76c0,1.006,0,2.012,0,2.926s0,2.012,0,2.926V522.27c0,56.323,77.993,100.76,176.742,100.76
    c26.699,0,52.3-2.926,75.067-8.869v76.987c0,56.323,77.993,100.76,176.742,100.76s176.742-44.437,176.742-100.76V590.571
    c0-1.006,0-2.012,0-2.926c0-1.006,0-2.012,0-2.926v-100.76c0-1.006,0-2.012,0-2.926c0-1.006,0-2.012,0-2.926V377.256H699.103z
     M139.254,169.884c1.006,1.006,2.926,2.012,3.932,2.012c3.932,2.926,8.869,4.937,13.806,6.949l0,0
    c4.937,2.012,9.875,3.932,14.812,5.943c2.012,1.006,3.932,1.006,4.937,2.012c3.932,1.006,6.949,2.012,10.881,3.932
    c2.012,1.006,3.932,1.006,6.949,2.012c3.932,1.006,6.949,2.012,10.881,2.926c2.012,1.006,4.937,1.006,6.949,1.006
    c3.932,1.006,7.863,1.006,11.886,2.012c2.012,0,4.937,1.006,6.949,1.006c3.932,1.006,8.869,1.006,12.801,1.006
    c2.012,0,3.932,0,5.943,1.006c6.949,0,12.801,1.006,19.75,1.006s13.806,0,19.75-1.006c2.012,0,3.932,0,5.943-1.006
    c3.932,0,8.869-1.006,12.801-1.006c2.012,0,4.937-1.006,6.949-1.006c3.932-1.006,7.863-1.006,11.886-2.012
    c2.012,0,4.937-1.006,6.949-1.006c3.932-1.006,6.949-2.012,10.881-2.926c2.012-1.006,3.932-1.006,6.949-2.012
    c3.932-1.006,6.949-2.012,10.881-3.932c2.012-1.006,3.932-1.006,4.937-2.012c4.937-2.012,9.875-3.932,14.812-5.943l0,0
    c4.937-2.012,8.869-4.937,13.806-6.949c1.006-1.006,2.926-2.012,3.932-2.012c2.926-2.012,5.943-3.932,8.869-5.943
    c0,0,1.006-1.006,2.012-1.006v38.494c0,30.63-57.238,64.187-140.26,64.187s-140.26-33.556-140.26-64.187v-38.494
    c0,0,1.006,1.006,2.012,1.006C133.311,165.952,136.236,167.964,139.254,169.884z M440.437,466.13
    c2.012,1.006,3.932,1.006,6.949,2.012c3.932,1.006,6.949,2.012,10.881,2.926c2.012,1.006,4.937,1.006,6.949,1.006
    c3.932,1.006,7.863,1.006,11.886,2.012c2.012,0,4.937,1.006,6.949,1.006c3.932,1.006,8.869,1.006,12.801,1.006
    c2.011,0,3.932,0,5.943,1.006c6.949,0,12.801,1.006,19.75,1.006c6.949,0,13.807,0,19.75-1.006c2.011,0,3.932,0,5.943-1.006
    c3.932,0,8.869-1.006,12.801-1.006c2.011,0,4.937-1.006,6.949-1.006c3.932-1.006,7.863-1.006,11.886-2.012
    c2.011,0,4.937-1.006,6.949-1.006c3.932-1.006,6.949-2.012,10.881-2.926c2.012-1.006,3.932-1.006,6.949-2.012
    c3.932-1.006,6.949-2.012,10.881-3.932c2.012-1.006,3.932-1.006,4.938-2.012c4.937-2.012,9.875-3.932,14.812-5.943l0,0
    c4.937-2.012,8.869-4.937,13.807-6.949c1.006-1.006,2.926-2.012,3.932-2.012c2.926-2.012,5.943-3.932,8.869-5.943
    c0,0,1.006-1.006,2.012-1.006v38.494c0,30.63-57.238,64.187-140.26,64.187c-35.568,0-67.112-5.943-90.885-15.818
    c0,0-1.006,0-1.006-1.006c-26.699-10.881-44.437-26.699-48.369-41.511c0,0,0,0,0-1.006c0-1.006,0-2.012,0-2.926l0,0v-41.511
    c2.012,1.006,2.926,2.012,4.937,3.932l0,0c0,0,0,0,1.006,0c1.006,0,1.006,1.006,2.012,1.006l0,0
    c2.012,1.006,2.926,2.012,4.937,2.926l0,0c2.012,1.006,2.926,2.012,4.937,2.926h1.006c1.006,0,1.006,1.006,2.012,1.006
    c3.932,2.012,7.863,3.932,12.801,5.943l0,0c1.006,0,2.012,1.006,2.926,1.006c2.012,1.006,4.937,2.012,6.949,2.926
    c2.012,1.006,2.926,1.006,4.937,2.012C432.482,464.21,436.414,465.215,440.437,466.13z M345.62,469.147
    c-22.676,6.949-48.369,10.881-75.067,10.881c-82.93,0-140.259-33.556-140.259-64.187v-38.494
    c32.55,23.681,82.931,38.494,140.26,38.494c26.699,0,52.3-2.926,75.067-8.869L345.62,469.147L345.62,469.147z M662.621,584.628
    c0,30.63-57.238,64.187-140.26,64.187c-80.005,0-137.242-31.636-140.26-61.261l0,0v-41.511
    c7.863,5.943,16.824,10.881,26.699,15.818l0,0c2.012,1.006,2.926,2.012,4.937,2.012c1.006,0,2.012,1.006,2.926,1.006
    c29.625,11.886,65.192,19.75,105.698,19.75c58.243,0,108.623-14.812,140.26-38.494V584.628z M358.421,337.757
    c-2.012,2.012-2.926,4.937-4.937,6.949c-1.006,1.006-1.006,2.012-2.012,3.932c-1.006,2.012-2.012,3.932-2.012,4.937
    c-1.006,2.012-1.006,3.932-2.012,4.937c0,1.006-1.006,1.006-1.006,2.012c-22.676,7.863-49.374,11.886-76.987,11.886
    c-82.931,0-140.259-33.556-140.259-64.187V269.73c32.55,23.681,82.931,38.494,140.26,38.494s108.623-14.812,140.26-38.494v27.613
    c-22.676,9.875-40.505,23.681-51.386,38.494C359.426,337.757,358.421,337.757,358.421,337.757z M662.621,377.256
    c0,30.63-57.238,64.187-140.26,64.187c-38.494,0-71.136-6.949-94.817-17.738l0,0c-2.926-1.006-5.943-2.926-8.869-3.932l0,0l0,0l0,0
    c0,0-1.006,0-1.006-1.006c0,0,0,0-1.006,0l-3.932-2.012c-2.012-2.012-2.926-2.926-3.932-2.926l0,0c0,0-1.006,0-1.006-1.006
    c0,0,0,0-1.006,0c-2.012-1.006-3.932-2.926-5.943-4.937l0,0c0,0,0,0-1.006,0l0,0c-1.006-1.006-2.012-2.012-2.926-2.926l0,0
    c-1.006-1.006-2.012-2.012-2.926-2.012l0,0l0,0l0,0c-1.006-1.006-2.012-2.012-2.926-2.926c-1.006-1.006-2.012-2.012-2.012-2.926
    l0,0l0,0c-1.006-1.006-1.006-2.012-2.012-2.926c-1.006-1.006-1.006-2.012-2.012-2.926l0,0c-2.012-3.932-2.926-6.949-2.926-10.881
    l0,0l0,0c0-1.006,0-2.012,0-2.012l0,0l0,0c0-2.012,0-3.932,1.006-6.949l0,0c4.937-15.818,23.681-30.63,52.3-41.511h1.006
    c23.681-8.869,52.3-14.812,86.862-14.812C605.292,313.069,662.621,346.717,662.621,377.256z M269.547,36.574
    c82.931,0,140.26,33.556,140.26,64.187s-57.238,64.187-140.26,64.187s-140.26-33.556-140.26-64.187
    C129.379,71.136,186.616,36.574,269.547,36.574z M129.379,522.453v-38.494c32.55,23.681,82.931,38.494,140.259,38.494
    c26.699,0,52.3-2.926,75.067-8.869v63.181c-22.676,6.949-48.369,10.881-75.067,10.881
    C186.616,586.64,129.379,553.083,129.379,522.453z M662.621,691.331c0,30.63-57.238,64.187-140.26,64.187
    s-140.26-33.556-140.26-64.187v-38.494c32.55,23.681,82.93,38.494,140.26,38.494s108.623-14.812,140.26-38.494V691.331z"/>
</g>
</svg>
