<?xml version="1.0" ?><!DOCTYPE svg  PUBLIC '-//W3C//DTD SVG 1.1//EN'  'http://www.w3.org/Graphics/SVG/1.1/DTD/svg11.dtd'><svg enable-background="new 0 0 128 128" height="128px" id="Layer_1" version="1.1" viewBox="0 0 128 128" width="128px" xml:space="preserve" xmlns="http://www.w3.org/2000/svg" xmlns:xlink="http://www.w3.org/1999/xlink"><circle cx="64" cy="64" fill="#19D77A" r="64"/><polygon fill="#30F795" points="88.804,40.46 85.486,29.19 47.21,40.46 "/><path d="M96.466,87.969v-5.453h0.262L96.73,41.48c0-1.11-0.9-2-2-2H38.71c-0.77,0-1.51,0.13-2.2,0.39  c-2.53,0.899-4.35,3.31-4.35,6.16v0.93c0,0.015,0.003,0.028,0.003,0.043v38.263c0,3.618,2.933,6.551,6.551,6.551h56.014  c1.104,0,2-0.896,2-2v-1.848H96.466z" fill="#8A7469"/><path d="M96.748,88.073H41.086c-1.55,0-2.808-1.258-2.808-2.808s1.257-2.808,2.808-2.808h55.662V88.073z" fill="#545454"/></svg>