<svg width="512" height="512" xmlns="http://www.w3.org/2000/svg" xmlns:svg="http://www.w3.org/2000/svg">
  <defs>
    <filter id="dropshadow" height="130%">
      <feGaussianBlur in="SourceAlpha" stdDeviation="10" result="blur"/> 
      <feOffset in="blur" dx="0" dy="9" result="offsetBlur"/>
      <feFlood flood-color="#000" flood-opacity="0.35" result="offsetColor"/>
      <feComposite in="offsetColor" in2="offsetBlur" operator="in" result="offsetBlur"/>
      <feMerge> 
        <feMergeNode/>
        <feMergeNode in="SourceGraphic"/> 
      </feMerge>
    </filter>
  </defs>
  <g>
    <title>Layer 1</title>
    <g id="svg_1" stroke="null">
      <path filter="url(#dropshadow)" d="m456.96423,120.1132c14.47452,0 26.28577,11.8112 26.28577,26.28573l0,219.20215c0,14.47458 -11.81125,26.28574 -26.28577,26.28574l-401.92849,0c-14.47454,0 -26.28574,-11.81116 -26.28574,-26.28574l0,-219.08635c0,-14.47452 11.81119,-26.28574 26.28574,-26.28574l401.92849,0l0,-0.11578z" fill="#0A4717" id="svg_12" stroke="null"/>
      <rect fill="#329945" height="225.45514" width="408.18151" x="52.02505" y="143.38823" id="svg_13" stroke="null"/>
      <circle cx="256.05791" cy="256.05792" fill="#0A4717" r="87.19449" id="svg_14" stroke="null"/>
      <path d="m107.60722,143.38824c0,30.68596 -24.89617,55.69798 -55.69796,55.69798c-8.22153,0 -16.09566,-1.85272 -23.15924,-5.09506l0,-47.47641c0,-14.47453 11.81121,-26.28576 26.28575,-26.28576l47.47644,0c3.35809,6.94779 5.09502,14.82194 5.09502,23.15926l0,0l-0.00001,-0.00002z" fill="#0A4717" id="svg_15" stroke="null"/>
      <path d="m107.60722,368.72757c0,8.22153 -1.85276,16.09561 -5.09505,23.15924l-47.47643,0c-14.47451,0 -26.28572,-11.81122 -26.28572,-26.2858l0,-47.47638c7.06358,-3.24228 14.93771,-5.095 23.15924,-5.095c30.80179,0.11578 55.69796,25.01196 55.69796,55.69794z" fill="#0A4717" id="svg_16" stroke="null"/>
      <path d="m483.25,318.12463l0,47.47644c0,14.47458 -11.81125,26.28574 -26.28577,26.28574l-47.47641,0c-3.24231,-7.06357 -5.095,-14.93768 -5.095,-23.15918c0,-30.68597 24.89615,-55.69797 55.69797,-55.69797c8.33722,0.11575 16.09567,1.85269 23.15921,5.09497z" fill="#0A4717" id="svg_17" stroke="null"/>
      <path d="m456.96423,120.1132c14.47452,0 26.28577,11.8112 26.28577,26.28573l0,47.47641c-7.06354,3.24231 -14.93774,5.09505 -23.15921,5.09505c-30.68604,0 -55.69797,-24.89618 -55.69797,-55.69797c0,-8.22151 1.85269,-16.09566 5.095,-23.15923l47.47641,0l0,0l0,0.00001z" fill="#0A4717" id="svg_18" stroke="null"/>
      <g id="svg_19" stroke="null">
        <path d="m249.11012,323.33548l0,-14.59027c-10.19005,-0.46326 -20.14853,-3.24231 -25.93832,-6.60046l4.63184,-17.83258c6.3688,3.47391 15.40088,6.71622 25.35934,6.71622c8.68468,0 14.70613,-3.35815 14.70613,-9.49533c0,-5.78973 -4.86349,-9.49524 -16.21147,-13.31653c-16.32727,-5.5582 -27.55951,-13.20078 -27.55951,-28.02271c0,-13.43231 9.49532,-23.96977 25.82256,-27.21207l0,-14.47455l14.93774,0l0,13.43236c10.19,0.46317 17.13776,2.54753 22.117,5.09505l-4.40024,17.2536c-3.9371,-1.73694 -11.0007,-5.2108 -22.00128,-5.2108c-9.95845,0 -13.20074,4.28441 -13.20074,8.56892c0,5.095 5.32663,8.22151 18.29572,13.20078c18.18005,6.36877 25.47519,14.8219 25.47519,28.60165c0,13.5481 -9.61108,25.2435 -27.2121,28.25424l0,15.63248l-14.82185,0z" fill="#329945" id="svg_20" stroke="null"/>
        </g>
    </g>
  </g>
</svg>