<?xml version="1.0" ?>
<svg enable-background="new 0 0 128 128" id="Layer_1" version="1.1" viewBox="0 0 128 128" xml:space="preserve" xmlns="http://www.w3.org/2000/svg" xmlns:xlink="http://www.w3.org/1999/xlink">
  <g fill="#cccccc">
    <path d="M64,84c-0.8,0-1.5-0.5-1.8-1.2C61.6,81.7,49,53.8,49,31c0-8.3,6.7-15,15-15s15,6.7,15,15  c0,22.8-12.6,50.7-13.2,51.8C65.5,83.5,64.8,84,64,84z M64,20c-6.1,0-11,4.9-11,11c0,16.9,7.5,37.2,11,45.9c3.5-8.7,11-29.1,11-45.9  C75,24.9,70.1,20,64,20z" />
    <path d="M64,110.5c-6.1,0-11-4.9-11-11s4.9-11,11-11s11,4.9,11,11S70.1,110.5,64,110.5z M64,92.5c-3.9,0-7,3.1-7,7  s3.1,7,7,7s7-3.1,7-7S67.9,92.5,64,92.5z" />
  </g>
</svg>
