<?xml version="1.0" encoding="iso-8859-1"?>
<!-- Generator: Adobe Illustrator 17.1.0, SVG Export Plug-In . SVG Version: 6.00 Build 0)  -->
<svg version="1.1" id="Capa_1" xmlns="http://www.w3.org/2000/svg" xmlns:xlink="http://www.w3.org/1999/xlink" x="0px" y="0px"
   viewBox="0 0 424.05 424.05" style="enable-background:new 0 0 424.05 424.05;" xml:space="preserve">
<g fill="#cccccc">
  <path d="M384.998,216.773h-27.4c-8.192-17.55-20.955-33.479-37.333-46.57c-0.332-19.494-1.73-34.292-4.258-45.135
    c-3.916-16.8-11.332-25.318-22.044-25.318c-11.688,0-36.557,14.617-55.683,36.111c-8.61-1.206-17.376-1.815-26.132-1.815
    c-41.302,0-80.216,13.259-109.573,37.335c-26.628,21.838-42.603,50.217-45.808,80.879c-11.952-3.951-20.603-15.22-20.603-28.478
    c0-5.523-4.478-10-10-10s-10,4.477-10,10c0,24.278,17.4,44.561,40.382,49.055c2.684,31.874,19.432,61.902,47.066,84.162
    l-8.59,48.716c-0.461,2.612,0.135,5.299,1.656,7.472c1.521,2.172,3.843,3.652,6.455,4.112l37.423,6.599
    c2.611,0.458,5.299-0.136,7.472-1.657s3.652-3.843,4.112-6.455l5.37-30.452c17.417,5.423,35.741,8.166,54.638,8.166
    c18.896,0,37.22-2.742,54.637-8.166l5.37,30.452c0.46,2.612,1.939,4.934,4.112,6.455c1.692,1.185,3.697,1.809,5.735,1.809
    c0.578,0,1.159-0.05,1.736-0.152l37.423-6.599c5.439-0.959,9.07-6.146,8.111-11.584L320.684,357
    c16.18-13.031,28.791-28.827,36.913-46.227h27.4c12.621,0,22.889-10.268,22.889-22.888v-48.224
    C407.886,227.041,397.619,216.773,384.998,216.773z M384.998,290.773h-33.975c-4.103,0-7.788,2.505-9.298,6.319
    c-7.2,18.187-20.298,34.661-37.879,47.641c-3.054,2.254-4.567,6.043-3.908,9.781l7.903,44.825l-17.728,3.126l-5.675-32.183
    c-0.52-2.948-2.333-5.509-4.941-6.978c-2.61-1.469-5.74-1.69-8.529-0.607c-18.441,7.167-38.231,10.802-58.82,10.802
    c-20.59,0-40.38-3.634-58.821-10.802c-2.79-1.083-5.92-0.862-8.529,0.607c-2.608,1.469-4.422,4.029-4.941,6.978l-5.675,32.183
    l-17.727-3.126l7.903-44.825c0.659-3.738-0.854-7.527-3.908-9.781c-28.149-20.782-44.294-50.291-44.294-80.96
    c0-60.504,61.006-109.728,135.992-109.728c9.555,0,19.116,0.811,28.417,2.411c3.554,0.611,7.162-0.738,9.442-3.532
    c15.791-19.345,36.247-31.284,43-32.982c1.735,2.493,6.99,13.476,7.317,55.296c0.024,3.13,1.514,6.068,4.022,7.939
    c17.322,12.915,30.247,29.263,37.378,47.276c1.51,3.814,5.195,6.319,9.298,6.319h33.975c1.593,0,2.889,1.295,2.889,2.888v4.505
    h-0.861c-5.522,0-10,4.477-10,10s4.478,10,10,10h0.861v23.718C387.886,289.478,386.59,290.773,384.998,290.773z"/>
  <path d="M212.148,107c29.5,0,53.5-24,53.5-53.5s-24-53.5-53.5-53.5s-53.5,24-53.5,53.5S182.648,107,212.148,107z M212.148,20
    c18.472,0,33.5,15.028,33.5,33.5S230.62,87,212.148,87s-33.5-15.028-33.5-33.5S193.676,20,212.148,20z"/>
  <path d="M251.267,177.643c-12.492-3.968-25.653-5.98-39.119-5.98c-13.465,0-26.627,2.012-39.12,5.98
    c-5.264,1.672-8.176,7.294-6.504,12.558c1.673,5.264,7.294,8.176,12.559,6.503c10.532-3.345,21.657-5.042,33.065-5.042
    s22.533,1.696,33.064,5.042c1.007,0.32,2.026,0.472,3.03,0.472c4.239,0,8.176-2.719,9.527-6.976
    C259.443,184.938,256.531,179.315,251.267,177.643z"/>
</g>
</svg>
